<?xml version="1.0" encoding="UTF-8" standalone="no"?><svg xmlns:svg="http://www.w3.org/2000/svg" xmlns="http://www.w3.org/2000/svg" version="1.1" style="overflow:visible" viewBox="-250 -250 500 500" height="500px" width="500px"><rect fill-opacity="0" fill="rgb(0,0,0)" height="500" width="500" y="-250" x="-250" /><svg version="1.1" y="-250" x="-250" viewBox="-250 -250 500 500" height="500px" width="500px" style="overflow:visible"><g transform="rotate(0,0,0)" stroke-linejoin="round" fill="#fff"><path stroke-linecap="butt" stroke-linejoin="round" stroke-width="10" stroke-opacity="1" stroke="rgb(68,68,68)" fill="rgb(255,255,255)" d="m-0.016-195c15.3984 0 27.795 12.3653 27.795 27.725v173.744c0 15.3596-12.3965 27.725-27.795 27.725c-15.3984 0-27.795-12.3653-27.795-27.725v-173.744c0-15.3596 12.3965-27.725 27.795-27.725z" /><path stroke-linecap="butt" stroke-linejoin="round" stroke-width="10" stroke-opacity="1" stroke="rgb(68,68,68)" fill="rgb(255,255,255)" d="m91.894-107.704001a27.7987 27.7287 0 0 0-18.3997 49.0381c24.656 21.058 39.4837 52.0565 39.5319 85.4743c-0.009 62.5882-50.2829 112.73-113.033 112.73c-62.7425 0-113.012-50.1322-113.033-112.711v-0.0184c0.0481-33.4178 14.8764-64.4162 39.5319-85.4743a27.7987 27.7287 0 1 0-36.1519-42.105c-36.8005 31.4217-58.9068 77.7778-58.9624 127.535v0.0369c0 92.5644 75.8246 168.199 168.622 168.199c92.7982 0 168.622-75.6337 168.622-168.199v-0.0369c-0.0635-49.7534-22.1674-96.1114-58.9661-127.542a27.7987 27.7287 0 0 0-17.7555-6.91684z" /></g></svg></svg>